# xmcd
#
# Track frame offsets:
# 150
# 25659
# 53937
# 71112
# 84220
# 96857
# 117378
# 146698
# 165283
# 182540
# 205289
# 228576
# 243462
#
# Disc length: 3603 seconds
#
# Revision: 1
# Processed by: cddbd v1.5.2PL0 Copyright (c) Steve Scherf et al.
# Submitted via: CedeCatalogueitor 2.6.0.6 http://personales.ya.com/cdcatalogueitor
#
DISCID=ac0e110d
DTITLE=Van Morrison - Magic Time
DYEAR=2005
DGENRE=
TTITLE0=Stranded
TTITLE1=Celtic New Year
TTITLE2=Keep mediocrity at bay
TTITLE3=Evening Train
TTITLE4=This Love Of Mine
TTITLE5=I'm Confessin'
TTITLE6=Just Like Greta
TTITLE7=Gypsy In My Soul
TTITLE8=Lonely And Blue
TTITLE9=The Lion This Time
TTITLE10=Magic Time
TTITLE11=They Sold My Out
TTITLE12=Carry On Regardless
EXTD=
EXTT0=
EXTT1=
EXTT2=
EXTT3=
EXTT4=
EXTT5=
EXTT6=
EXTT7=
EXTT8=
EXTT9=
EXTT10=
EXTT11=
EXTT12=
PLAYORDER=
